<?xml version="1.0" encoding="utf-8"?>
<!-- Svg Vector Icons : http://www.onlinewebfonts.com/icon -->
<!DOCTYPE svg PUBLIC "-//W3C//DTD SVG 1.1//EN" "http://www.w3.org/Graphics/SVG/1.1/DTD/svg11.dtd">
<svg version="1.1" xmlns="http://www.w3.org/2000/svg" xmlns:xlink="http://www.w3.org/1999/xlink" x="0px" y="0px" viewBox="0 0 1000 1000" enable-background="new 0 0 1000 1000" xml:space="preserve">
<metadata> Svg Vector Icons : http://www.onlinewebfonts.com/icon </metadata>
<g><g transform="translate(0.000000,511.000000) scale(0.100000,-0.100000)"><path d="M4115.8,4980.8c-313.3-84.6-582.4-392.1-609.4-699.7l-11.5-115.3h-305.6c-346,0-413.3-17.3-476.7-119.2c-26.9-44.2-38.4-96.1-38.4-173V3764l-426.7-5.8l-428.7-5.8l-128.8-61.5c-169.2-78.8-307.6-217.2-386.4-386.4l-61.5-128.8v-3287v-3287l53.8-109.6c69.2-142.2,194.1-278.7,324.9-357.5c198-117.3,203.8-119.2,1972.2-119.2c878.5,0,1599.3,3.9,1599.3,7.7c0,5.8-34.6,80.7-76.9,169.2c-44.2,88.4-92.3,205.7-107.7,259.5l-28.8,101.9H3485.3c-1426.3,0-1497.4,1.9-1574.3,36.5c-50,23.1-94.2,61.5-115.3,101.9c-32.7,59.6-34.6,209.5-40.4,3164c-1.9,2076,1.9,3127.5,15.4,3175.5c11.5,42.3,48.1,98,86.5,132.6l69.2,59.6h372.9h374.8v-136.5c0-151.9,30.8-223,115.3-274.9c48.1-26.9,199.9-30.8,1551.2-30.8c1447.4,0,1497.4,1.9,1557,38.4c82.6,50,103.8,96.1,115.3,261.4l11.5,142.2h357.5c315.2,0,365.2-3.8,417.1-36.5c130.7-78.8,123,40.4,123-2141.4V-922.4l159.6-13.4c86.5-7.7,207.6-25,269.1-38.4l109.6-25V1021c0,2170.2,1.9,2126-96.1,2320.1c-86.5,167.2-265.3,319.1-455.6,384.4c-92.3,30.7-161.4,36.5-499.8,36.5h-390.2v73c0,113.4-32.7,203.8-98,265.3l-57.7,55.7l-332.6,5.8l-332.5,5.8l-21.1,125c-28.8,174.9-100,317.2-224.9,447.9C4730.9,4973.1,4419.5,5061.5,4115.8,4980.8z M4550.2,4502.1c313.3-182.6,209.5-676.6-155.7-730.4c-301.8-46.1-544,278.7-415.2,557.4C4081.2,4548.2,4336.8,4627.1,4550.2,4502.1z"/><path d="M3448.8,2397.3c-23.1-9.6-155.7-169.2-297.9-355.6l-255.6-340.2l-48.1,63.5c-196.1,259.5-230.7,286.4-338.3,259.5c-55.7-15.4-109.6-113.4-92.3-171.1c17.3-57.7,367.1-526.7,403.7-540.1c57.7-23.1,142.2-11.5,176.8,23c19.2,19.2,174.9,221.1,346,447.9c332.5,442.1,353.7,484.4,273,570.9c-23.1,23.1-48.1,42.3-57.7,42.3c-7.7,0-26.9,3.8-42.3,7.7C3502.6,2410.7,3471.8,2406.9,3448.8,2397.3z"/><path d="M4010.1,1947.5c-96.1-42.3-134.6-100-134.6-203.8c0-103.8,38.4-161.5,138.4-203.8c92.3-40.4,1997.2-38.4,2091.4,0c184.5,76.9,167.2,361.4-25,415.2C5966.9,1985.9,4083.1,1980.1,4010.1,1947.5z"/><path d="M3448.8,1147.8c-23.1-9.6-157.6-171.1-297.9-357.5l-253.7-340.2l-50,65.4c-196.1,259.5-230.7,286.4-338.3,259.5c-55.7-15.4-109.6-113.4-92.3-171.1c25-82.7,372.9-528.6,426.7-547.8c103.8-34.6,140.3,0,482.5,455.6c351.8,467.1,371,507.5,290.3,594c-23.1,23.1-48.1,42.3-57.7,42.3c-7.7,0-26.9,3.8-42.3,7.7C3502.6,1161.3,3471.8,1157.4,3448.8,1147.8z"/><path d="M4027.4,703.8c-98-28.8-151.9-101.9-151.9-209.5c0-65.3,11.5-103.8,38.4-134.6c84.6-96.1,96.1-96.1,1143.7-96.1c1063,0,1076.4,1.9,1143.7,103.8c40.4,61.5,42.3,188.4,3.9,244.1c-76.9,107.6-36.5,103.8-1118.8,107.6C4534.8,721.1,4060,713.4,4027.4,703.8z"/><path d="M3462.2-99.7c-34.6-9.6-124.9-113.4-307.6-355.6l-259.5-342.2l-48.1,63.4c-157.6,209.5-205.7,257.6-259.5,263.3c-105.7,13.5-199.9-84.6-171.1-176.8c25-80.7,372.9-526.7,426.7-545.9c105.7-34.6,140.3-1.9,482.5,455.6c353.7,470.9,372.9,513.2,286.4,592C3556.4-95.9,3521.8-86.3,3462.2-99.7z"/><path d="M4037-545.7c-32.7-7.7-82.7-36.5-111.5-63.4c-40.4-40.4-50-69.2-50-146.1c0-82.7,9.6-103.8,63.4-157.6l61.5-63.4l1018.8-5.8c1107.2-5.8,1114.9-3.9,1184.1,100c65.4,101.9,28.8,261.4-75,317.2c-30.8,17.3-305.6,23.1-1036.1,26.9C4546.4-536,4071.6-539.9,4037-545.7z"/><path d="M6622.4-1108.9c-430.6-82.7-753.5-255.7-1036.1-551.7c-221.1-232.6-363.3-482.5-453.7-788.1c-57.7-203.8-73-624.7-26.9-845.8c75-371,234.5-668.9,507.5-941.9c292.2-292.2,607.4-459.4,995.7-526.7c805.4-140.3,1616.6,276.8,1976.1,1018.8c144.2,297.9,173,428.7,173,807.3c0,365.2-26.9,495.9-153.8,770.8c-128.8,282.5-382.5,584.3-632.4,755.4c-144.2,100-430.6,226.8-607.4,271C7154.8-1087.7,6806.9-1074.3,6622.4-1108.9z M7106.8-1545.2c324.9-44.2,607.4-192.2,838.1-438.3c157.6-167.2,255.6-336.4,326.8-559.4c63.4-207.6,63.4-580.5,0-788.1c-80.7-251.8-171.1-403.7-355.6-594C7245.2-4615,6084.1-4422.8,5663.2-3552C5561.3-3340.6,5519-3158,5519-2931.2c0,584.4,386.4,1126.4,941.9,1318.7C6693.5-1531.8,6872.3-1512.5,7106.8-1545.2z"/><path d="M7543.1-2135.3c-73-21.1-105.7-61.5-467.1-540.2c-190.3-255.7-353.7-463.3-361.4-463.3s-73,84.6-148,184.5c-174.9,238.4-219.1,276.8-328.7,276.8c-119.2,0-199.9-73-213.4-194.1c-9.6-86.5-9.6-88.4,265.3-455.6c305.6-409.4,351.8-447.9,476.7-409.4c38.5,11.5,92.3,44.2,119.2,73c26.9,30.7,246.1,315.2,486.3,636.2c461.3,613.2,488.2,661.3,430.6,770.8C7752.6-2164.2,7633.5-2108.4,7543.1-2135.3z"/><path d="M3360.3-1431.8c-36.5-46.1-153.8-201.8-263.3-346c-107.6-146.1-199.9-265.3-201.8-265.3c-3.8,0-51.9,61.5-105.7,134.6c-113.4,153.8-161.5,192.2-230.7,192.2c-88.4-1.9-167.2-100-142.2-178.8c23.1-76.9,376.8-534.4,428.7-553.6c94.2-36.5,140.3,7.7,482.5,463.3c351.8,470.9,371,509.4,282.6,592c-28.8,26.9-69.2,42.3-113.4,42.3C3437.2-1351.1,3416.1-1364.5,3360.3-1431.8z"/><path d="M3938.9-1848.9c-55.7-50-63.4-67.3-63.4-153.8c0-84.6,7.7-105.7,63.4-159.6l61.5-63.4l517.1-5.8l517.1-5.8l59.6,130.7c34.6,71.1,86.5,171.1,117.2,221.1l57.7,92.3h-634.3h-634.3L3938.9-1848.9z"/></g></g>
</svg>