<?xml version="1.0" standalone="no"?>
<!DOCTYPE svg PUBLIC "-//W3C//DTD SVG 20010904//EN"
 "http://www.w3.org/TR/2001/REC-SVG-20010904/DTD/svg10.dtd">
<svg version="1.0" xmlns="http://www.w3.org/2000/svg"
 width="225.000000pt" height="225.000000pt" viewBox="0 0 225.000000 225.000000"
 preserveAspectRatio="xMidYMid meet">
<metadata>
Created by potrace 1.15, written by Peter Selinger 2001-2017
</metadata>
<g transform="translate(0.000000,225.000000) scale(0.100000,-0.100000)"
fill="#000000" stroke="none">
<path d="M1060 2089 c-19 -5 -49 -25 -66 -44 -29 -33 -32 -34 -68 -24 -50 14
-70 6 -64 -26 5 -22 0 -26 -34 -35 -47 -13 -115 -69 -84 -70 18 0 16 -4 -11
-32 -41 -44 -49 -68 -22 -68 20 0 20 -1 -5 -31 -32 -38 -33 -53 -3 -44 20 7
19 4 -9 -26 -37 -40 -59 -80 -69 -129 l-7 -35 31 29 31 30 0 -55 c0 -73 9
-102 28 -94 19 7 32 -11 32 -45 0 -14 9 -43 19 -65 l18 -40 7 70 c4 39 12 85
18 103 l10 34 22 -21 22 -21 -1 88 c0 70 4 94 21 122 29 51 47 49 63 -5 17
-58 62 -120 102 -140 17 -9 33 -14 35 -12 3 3 -2 32 -10 65 -17 63 -20 102
-10 102 4 0 28 -16 54 -35 42 -31 75 -70 109 -130 9 -16 11 -3 9 63 -2 45 0
82 5 82 12 0 47 -63 47 -87 0 -28 10 -53 21 -53 5 0 17 16 27 37 l19 36 11
-33 c7 -18 12 -49 12 -68 0 -31 2 -33 16 -21 14 12 20 9 40 -16 24 -30 44 -83
44 -120 0 -17 3 -15 20 10 11 17 20 39 20 50 0 11 7 38 15 60 10 29 14 34 15
17 0 -15 4 -21 11 -16 8 4 10 32 7 82 -5 75 -5 76 13 53 l19 -23 0 35 c0 24
-9 46 -27 68 -27 31 -27 32 -5 27 12 -3 22 -2 22 3 0 18 -40 88 -63 110 l-22
21 33 -16 c17 -9 32 -14 32 -10 0 16 -35 62 -61 79 -16 11 -24 22 -17 26 13 8
-24 43 -63 59 -28 12 -39 30 -18 30 5 0 7 4 4 10 -3 5 -32 15 -64 21 -60 13
-72 31 -30 44 11 4 17 11 14 16 -8 12 -97 12 -130 -1 -20 -8 -27 -7 -31 5 -7
17 -50 18 -104 4z"/>
<path d="M1095 683 c-17 -9 -32 -17 -34 -19 -2 -2 6 -17 17 -35 l20 -32 -25
-53 c-16 -34 -27 -86 -34 -146 -13 -125 -27 -382 -22 -388 3 -3 51 -5 108 -5
57 0 105 2 107 5 6 7 -9 269 -21 388 -7 60 -18 111 -34 146 -25 53 -25 54 -6
82 25 38 25 38 -14 56 -30 14 -36 14 -62 1z"/>
</g>
</svg>
