<?xml version="1.0" standalone="no"?>
<!DOCTYPE svg PUBLIC "-//W3C//DTD SVG 20010904//EN"
 "http://www.w3.org/TR/2001/REC-SVG-20010904/DTD/svg10.dtd">
<svg version="1.0" xmlns="http://www.w3.org/2000/svg"
 width="980.000000pt" height="976.000000pt" viewBox="0 0 980.000000 976.000000"
 preserveAspectRatio="xMidYMid meet">
<metadata>
Created by potrace 1.15, written by Peter Selinger 2001-2017
</metadata>
<g transform="translate(0.000000,976.000000) scale(0.100000,-0.100000)"
fill="#000000" stroke="none">
<path d="M4580 9749 c-663 -42 -1348 -233 -1945 -543 -453 -236 -835 -516
-1205 -886 -811 -809 -1296 -1839 -1410 -2990 -6 -58 -13 -208 -16 -335 -30
-1089 316 -2168 975 -3040 140 -185 274 -339 451 -515 257 -257 479 -438 777
-634 1069 -702 2364 -957 3627 -715 1296 248 2443 1017 3169 2125 433 660 684
1370 774 2184 24 217 24 744 0 960 -61 548 -186 1020 -396 1495 -335 757 -877
1432 -1553 1936 -927 692 -2078 1031 -3248 958z m630 -489 c1300 -97 2456
-728 3232 -1765 394 -527 675 -1168 792 -1805 218 -1191 -43 -2371 -742 -3357
l-65 -92 -56 41 c-211 153 -356 236 -1190 683 -579 310 -885 505 -1022 652
-73 78 -79 95 -79 228 l0 117 85 91 c341 371 563 801 658 1277 47 232 52 298
52 635 0 492 -39 773 -155 1110 -226 656 -705 1043 -1421 1151 -145 21 -516
30 -676 15 -634 -59 -1098 -324 -1386 -791 -145 -235 -254 -574 -301 -930 -27
-203 -40 -579 -28 -779 42 -656 271 -1205 696 -1671 l96 -105 0 -125 c0 -142
-1 -145 -92 -238 -155 -160 -478 -360 -1198 -742 -544 -289 -714 -387 -934
-537 -59 -41 -109 -73 -110 -71 -1 2 -25 35 -53 73 -255 354 -470 777 -608
1200 -90 272 -166 638 -197 945 -16 162 -16 658 0 820 76 750 325 1438 744
2057 303 446 711 852 1168 1162 654 444 1415 704 2205 754 122 8 462 6 585 -3z
m94 -1499 c675 -121 1008 -546 1098 -1401 17 -167 17 -667 0 -780 -39 -253
-100 -454 -202 -667 -119 -247 -240 -415 -447 -619 l-133 -131 0 -229 c0 -252
9 -312 60 -418 77 -162 264 -345 545 -533 191 -128 382 -236 865 -493 404
-214 513 -274 665 -363 180 -105 365 -228 365 -242 0 -15 -189 -199 -328 -318
-485 -419 -1058 -730 -1657 -902 -257 -74 -483 -119 -760 -152 -211 -24 -738
-25 -947 0 -924 110 -1735 462 -2419 1053 -123 106 -317 292 -330 316 -8 16 7
29 118 102 197 129 360 220 1038 581 787 418 1118 663 1254 925 68 131 73 157
78 427 l5 243 -120 115 c-363 348 -582 767 -661 1266 -46 288 -28 785 40 1129
106 531 356 862 768 1017 91 34 257 73 381 89 164 21 572 12 724 -15z"/>
</g>
</svg>
